<?xml version="1.0" encoding="utf-8"?>
<!-- Generator: Adobe Illustrator 19.0.0, SVG Export Plug-In . SVG Version: 6.00 Build 0)  -->
<svg version="1.1" id="Layer_1" xmlns="http://www.w3.org/2000/svg" xmlns:xlink="http://www.w3.org/1999/xlink" x="0px" y="0px"
	 viewBox="90 -60.3 776.7 961.2" style="enable-background:new 90 -60.3 776.7 961.2;" xml:space="preserve">
<style type="text/css">
	.st0{clip-path:url(#SVGID_2_);}
	.st1{clip-path:url(#SVGID_4_);fill:#011EA0;}
	.st2{clip-path:url(#SVGID_6_);fill:#FFFFFF;}
	.st3{clip-path:url(#SVGID_8_);fill:#FFFFFF;}
	.st4{clip-path:url(#SVGID_10_);fill:#FFFFFF;}
	.st5{clip-path:url(#SVGID_12_);fill:#FFFFFF;}
	.st6{clip-path:url(#SVGID_14_);fill:#FFFFFF;}
	.st7{clip-path:url(#SVGID_16_);fill:#FFFFFF;}
	.st8{clip-path:url(#SVGID_18_);fill:#FFFFFF;}
</style>
<g>
	<g>
		<g>
			<defs>
				<rect id="SVGID_1_" x="-97.7" y="-147" width="1152" height="1135.7"/>
			</defs>
			<clipPath id="SVGID_2_">
				<use xlink:href="#SVGID_1_"  style="overflow:visible;"/>
			</clipPath>
			<path class="st0" d="M866.5,512.7c0,214.4-173.8,388.1-388.1,388.1S90.2,727.1,90.2,512.7S264,124.6,478.3,124.6
				S866.5,298.4,866.5,512.7"/>
		</g>
	</g>
	<g>
		<g>
			<defs>
				<rect id="SVGID_3_" x="-97.7" y="-147" width="1152" height="1135.7"/>
			</defs>
			<clipPath id="SVGID_4_">
				<use xlink:href="#SVGID_3_"  style="overflow:visible;"/>
			</clipPath>
			<path class="st1" d="M810.8,513c0,183.7-148.9,332.6-332.6,332.6c-183.8,0-332.7-148.9-332.7-332.6S294.4,180.4,478,180.4
				C661.9,180.3,810.8,329.3,810.8,513"/>
		</g>
	</g>
	<g>
		<g>
			<defs>
				<rect id="SVGID_5_" x="-97.7" y="-147" width="1152" height="1135.7"/>
			</defs>
			<clipPath id="SVGID_6_">
				<use xlink:href="#SVGID_5_"  style="overflow:visible;"/>
			</clipPath>
			<path class="st2" d="M296.5,385.2c-25.5,36.1-40.4,80.2-40.4,127.7c0,39.6,10.4,76.8,28.5,108.9l-6.7,82.7
				c-47.7-49.8-77-117.3-77-191.7c0-70.4,26.2-134.7,69.5-183.5L296.5,385.2z"/>
		</g>
		<g>
			<defs>
				<rect id="SVGID_7_" x="-97.7" y="-147" width="1152" height="1135.7"/>
			</defs>
			<clipPath id="SVGID_8_">
				<use xlink:href="#SVGID_7_"  style="overflow:visible;"/>
			</clipPath>
			<path class="st3" d="M755.3,513c0,74.7-29.6,142.6-77.7,192.4l-6.7-82.3c18.6-32.4,29.2-70,29.2-110.1c0-47.7-15-91.9-40.7-128.1
				l26.1-55.8C728.9,378,755.3,442.4,755.3,513"/>
		</g>
	</g>
	<g>
		<g>
			<defs>
				<rect id="SVGID_9_" x="-97.7" y="-147" width="1152" height="1135.7"/>
			</defs>
			<clipPath id="SVGID_10_">
				<use xlink:href="#SVGID_9_"  style="overflow:visible;"/>
			</clipPath>
			<path class="st4" d="M557.2,247.3c-9.1-2.7-18.4-5-27.9-6.7c-16.6-3.1-33.7-4.7-51.1-4.7c-17.7,0-35.1,1.7-51.9,4.9
				c-9.5,1.8-18.8,4.1-27.9,6.8c-12.9,3.9-25.4,8.7-37.4,14.3l23.4,50c20.6-9.6,43-16.2,66.5-19.1c9-1.1,18.1-1.7,27.4-1.7
				c9.7,0,19.3,0.6,28.7,1.8c22.9,3,44.7,9.4,64.9,18.8l23.4-50C582.9,255.9,570.2,251.1,557.2,247.3"/>
		</g>
		<g>
			<defs>
				<rect id="SVGID_11_" x="-97.7" y="-147" width="1152" height="1135.7"/>
			</defs>
			<clipPath id="SVGID_12_">
				<use xlink:href="#SVGID_11_"  style="overflow:visible;"/>
			</clipPath>
			<path class="st5" d="M567.9,716.1c-19.1,8.4-39.6,14.3-61.1,17c-9.4,1.2-19,1.8-28.7,1.8c-9.3,0-18.4-0.6-27.4-1.7
				c-22.2-2.7-43.4-8.7-63-17.5l-4.7,57.6c0.8,0.3,1.6,0.6,2.5,0.9c17.8,6.3,36.3,10.8,55.5,13.4c9.5,1.3,19.2,2.1,29,2.4
				c2.7,0.1,5.4,0.1,8.1,0.1c2.6,0,5.1,0,7.7-0.1c9.8-0.3,19.5-1,29.1-2.3c19.2-2.5,37.8-7.1,55.6-13.3c0.7-0.2,1.4-0.5,2.1-0.8
				L567.9,716.1z"/>
		</g>
		<g>
			<defs>
				<rect id="SVGID_13_" x="-97.7" y="-147" width="1152" height="1135.7"/>
			</defs>
			<clipPath id="SVGID_14_">
				<use xlink:href="#SVGID_13_"  style="overflow:visible;"/>
			</clipPath>
			<path class="st6" d="M506.8,292.8v440.3c-9.4,1.2-19,1.8-28.7,1.8c-9.3,0-18.4-0.6-27.4-1.7V292.7c9-1.1,18.1-1.7,27.4-1.7
				C487.8,291,497.4,291.6,506.8,292.8"/>
		</g>
	</g>
	<g>
		<defs>
			<rect id="SVGID_15_" x="-97.7" y="-147" width="1152" height="1135.7"/>
		</defs>
		<clipPath id="SVGID_16_">
			<use xlink:href="#SVGID_15_"  style="overflow:visible;"/>
		</clipPath>
		<path class="st7" d="M338.9,280.6L338.9,280.6l-2.7-5.8c-8.6,5.2-17,10.8-25,16.8c-6.4,4.8-12.6,9.9-18.5,15.3
			c-0.7,0.7-1.5,1.3-2.2,2l15.5,33.2l1,2.1l0,0l8.5,18.1l0.1-0.1L333,399l-22.8,259.3l-6.4,70.3c16.2,13.1,33.8,24.4,52.7,33.6
			l3.2-39.9l18.7-226.2l44.9,97.1V463.6L338.9,280.6z"/>
	</g>
	<g>
		<defs>
			<rect id="SVGID_17_" x="-97.7" y="-147" width="1152" height="1135.7"/>
		</defs>
		<clipPath id="SVGID_18_">
			<use xlink:href="#SVGID_17_"  style="overflow:visible;"/>
		</clipPath>
		<path class="st8" d="M615.1,281.2L615.1,281.2l2.7-5.8c8.6,5.2,17,10.8,25,16.8c6.4,4.8,12.6,9.9,18.5,15.3c0.7,0.7,1.5,1.3,2.2,2
			L648,342.7l-1,2.1l0,0l-8.5,18.1l-0.1-0.1L621,399.6l22.8,259.1l6.4,70.3c-16.2,13.1-33.8,24.4-52.7,33.6l-3.2-39.9l-18.7-226.2
			l-45.1,97.2V464.2L615.1,281.2z"/>
	</g>
</g>
<g>
	<polygon points="380.4,-59.1 398.4,-3.6 456.8,-3.6 409.5,30.7 427.5,86.2 380.4,51.9 333.1,86.2 351.1,30.7 304,-3.6 362.3,-3.6 	
		"/>
	<polygon points="576.3,-59.1 594.3,-3.6 652.8,-3.6 605.5,30.7 623.5,86.2 576.3,51.9 529.2,86.2 547.2,30.7 500,-3.6 558.3,-3.6 	
		"/>
</g>
</svg>
