<?xml version="1.0" encoding="UTF-8"?>
<svg xmlns="http://www.w3.org/2000/svg" xmlns:xlink="http://www.w3.org/1999/xlink" width="541.57pt" height="541.58pt" viewBox="0 0 541.57 541.58" version="1.1">
<defs>
<clipPath id="clip1">
  <path d="M 0 0 L 541.570313 0 L 541.570313 541.578125 L 0 541.578125 Z M 0 0 "/>
</clipPath>
</defs>
<g id="surface1">
<g clip-path="url(#clip1)" clip-rule="nonzero">
<path style=" stroke:none;fill-rule:nonzero;fill:rgb(0%,19.993591%,39.988708%);fill-opacity:1;" d="M 270.789063 -0.105469 C 121.417969 -0.105469 0 121.3125 0 270.683594 C 0 420.054688 121.417969 541.46875 270.789063 541.46875 C 420.15625 541.46875 541.574219 420.054688 541.574219 270.683594 C 541.574219 121.3125 420.15625 -0.105469 270.789063 -0.105469 Z M 270.789063 21.496094 C 408.472656 21.496094 519.976563 133 519.976563 270.683594 C 519.976563 408.367188 408.472656 519.871094 270.789063 519.871094 C 133.105469 519.871094 21.601563 408.367188 21.601563 270.683594 C 21.601563 133 133.105469 21.496094 270.789063 21.496094 "/>
</g>
<path style=" stroke:none;fill-rule:nonzero;fill:rgb(100%,100%,100%);fill-opacity:1;" d="M 270.054688 21.292969 C 407.738281 21.292969 519.242188 132.796875 519.242188 270.480469 C 519.242188 408.164063 407.738281 519.667969 270.054688 519.667969 C 132.371094 519.667969 20.867188 408.164063 20.867188 270.480469 C 20.867188 132.796875 132.371094 21.292969 270.054688 21.292969 "/>
<path style=" stroke:none;fill-rule:nonzero;fill:rgb(50.193787%,50.584412%,73.631287%);fill-opacity:1;" d="M 221.230469 26.019531 C 159.703125 38.226563 106.402344 73.089844 70.253906 121.53125 L 303.691406 517.417969 C 366.273438 508.984375 421.425781 477.378906 460.292969 431.46875 L 221.230469 26.019531 "/>
<path style=" stroke:none;fill-rule:nonzero;fill:rgb(0%,19.993591%,39.988708%);fill-opacity:1;" d="M 345.570313 95.828125 L 343.097656 100.21875 L 336.683594 111.578125 L 277.507813 215.980469 L 204.835938 111.691406 L 196.285156 99.542969 L 194.257813 96.617188 C 127.382813 126.109375 80.632813 193.003906 80.632813 270.65625 C 80.632813 347.253906 126.242188 413.367188 191.671875 443.453125 L 198.984375 427.140625 C 139.726563 399.945313 98.632813 340.140625 98.632813 270.65625 C 98.632813 205.40625 134.925781 148.746094 188.410156 119.566406 L 279.195313 249.617188 L 352.882813 119.34375 C 352.894531 119.339844 352.988281 119.34375 352.996094 119.34375 C 406.589844 148.492188 442.996094 205.308594 442.996094 270.65625 C 442.996094 339.023438 403.265625 398.007813 345.570313 425.792969 L 353.785156 441.765625 C 417.191406 410.914063 460.996094 345.800781 460.996094 270.65625 C 460.996094 192.324219 413.351563 124.917969 345.570313 95.828125 "/>
<path style=" stroke:none;fill-rule:nonzero;fill:rgb(0%,19.993591%,39.988708%);fill-opacity:1;" d="M 269.3125 154.226563 C 205.816406 155.03125 154.335938 206.984375 154.335938 270.664063 C 154.335938 334.84375 206.59375 387.101563 270.773438 387.101563 C 317.316406 387.101563 357.566406 359.632813 376.1875 320.050781 L 360.660156 311.050781 C 345.285156 345.339844 310.84375 369.101563 270.773438 369.101563 C 216.332031 369.101563 172.335938 325.105469 172.335938 270.664063 C 172.335938 216.222656 216.332031 172.226563 270.773438 172.226563 C 303.488281 172.226563 332.53125 188.117188 350.425781 212.613281 L 363.359375 200.125 C 342.0625 172.289063 308.433594 154.226563 270.773438 154.226563 C 270.273438 154.226563 269.8125 154.21875 269.3125 154.226563 "/>
<path style=" stroke:none;fill-rule:evenodd;fill:rgb(0%,19.993591%,39.988708%);fill-opacity:1;" d="M 231.128906 253.71875 L 231.128906 440.355469 L 249.128906 440.355469 L 249.128906 328.867188 L 292.441406 328.867188 L 292.441406 310.867188 L 249.128906 310.867188 L 249.128906 271.71875 L 306.953125 271.71875 L 306.953125 253.71875 L 231.128906 253.71875 "/>
</g>
</svg>
