<?xml version="1.0" encoding="UTF-8" standalone="no"?>
<!-- Generator: Adobe Illustrator 15.0.2, SVG Export Plug-In . SVG Version: 6.00 Build 0)  -->

<svg
   version="1.1"
   id="Capa_1"
   x="0px"
   y="0px"
   width="142.06839"
   height="142.06769"
   viewBox="0 0 405.021 375.05869"
   enable-background="new 0 0 612 792"
   xml:space="preserve"
   inkscape:version="1.3 (0e150ed6c4, 2023-07-21)"
   sodipodi:docname="Republicano Real Madrid FC.svg"
   inkscape:export-filename="Real_Madrid_CF_logo_republicano.svg"
   inkscape:export-xdpi="2027.1926"
   inkscape:export-ydpi="2027.1926"
   xmlns:inkscape="http://www.inkscape.org/namespaces/inkscape"
   xmlns:sodipodi="http://sodipodi.sourceforge.net/DTD/sodipodi-0.dtd"
   xmlns="http://www.w3.org/2000/svg"
   xmlns:svg="http://www.w3.org/2000/svg"
   xmlns:rdf="http://www.w3.org/1999/02/22-rdf-syntax-ns#"
   xmlns:cc="http://creativecommons.org/ns#"
   xmlns:dc="http://purl.org/dc/elements/1.1/"><metadata
   id="metadata129"><rdf:RDF><cc:Work
       rdf:about=""><dc:format>image/svg+xml</dc:format><dc:type
         rdf:resource="http://purl.org/dc/dcmitype/StillImage" /></cc:Work></rdf:RDF></metadata><defs
   id="defs127" /><sodipodi:namedview
   pagecolor="#ffffff"
   bordercolor="#666666"
   borderopacity="1"
   objecttolerance="10"
   gridtolerance="10"
   guidetolerance="10"
   inkscape:pageopacity="0"
   inkscape:pageshadow="2"
   inkscape:window-width="1366"
   inkscape:window-height="697"
   id="namedview125"
   showgrid="false"
   fit-margin-top="0"
   fit-margin-left="0"
   fit-margin-right="0"
   fit-margin-bottom="0"
   inkscape:zoom="2.2148128"
   inkscape:cx="100.68571"
   inkscape:cy="124.38975"
   inkscape:window-x="-8"
   inkscape:window-y="-8"
   inkscape:window-maximized="1"
   inkscape:current-layer="Capa_1"
   inkscape:showpageshadow="2"
   inkscape:pagecheckerboard="0"
   inkscape:deskcolor="#d1d1d1" />&#10;&#10;&#10;&#10;&#10;&#10;&#10;&#10;&#10;&#10;&#10;&#10;&#10;&#10;&#10;&#10;&#10;&#10;&#10;&#10;&#10;&#10;&#10;&#10;&#10;&#10;&#10;&#10;&#10;&#10;&#10;&#10;&#10;&#10;&#10;&#10;&#10;&#10;&#10;&#10;&#10;&#10;&#10;&#10;&#10;&#10;&#10;&#10;&#10;&#10;&#10;&#10;&#10;&#10;&#10;&#10;<path
   d="m 0,187.63384 c 0,111.607 90.844999,202.405 202.51002,202.405 111.665,0 202.511,-90.798 202.511,-202.405 0,-111.721997 -90.846,-202.613997 -202.511,-202.613997 C 90.845999,-14.980157 0,75.911843 0,187.63384 Z"
   id="path113"
   inkscape:connector-curvature="0"
   style="fill:#630b57;fill-opacity:1" />&#10;<path
   d="m 5.743,187.63384 c 0,54.222 22.061999,103.374 57.696999,138.993 v 0 c 35.640009,35.617 84.815021,57.669 139.071021,57.669 v 0 c 54.251,0 103.43,-22.052 139.07,-57.669 v 0 c 35.636,-35.619 57.697,-84.771 57.697,-138.993 v 0 c 0,-54.282 -22.062,-103.485997 -57.697,-139.144997 v 0 c -35.641,-35.654 -84.819,-57.7279995 -139.07,-57.7279995 v 0 c -54.252,0 -103.431012,22.0739995 -139.069021,57.7279995 v 0 C 27.806999,84.147843 5.743,133.35184 5.743,187.63384 Z"
   id="path115"
   inkscape:connector-curvature="0"
   style="fill:#febe10" />&#10;<path
   d="M 22.985999,187.52784 C 22.989999,88.531843 103.51402,8.0098435 202.51102,8.0048435 v 0 c 98.997,0.005 179.519,80.5269995 179.523,179.5229965 v 0 c -0.004,98.999 -80.526,179.522 -179.523,179.527 v 0 c -98.997,-0.005 -179.521021,-80.528 -179.525021,-179.527 z"
   id="path117"
   inkscape:connector-curvature="0"
   style="fill:#630b57;fill-opacity:1" />&#10;<path
   d="m 28.729999,187.52884 c 0,-95.821997 77.958021,-173.778997 173.781021,-173.778997 95.823,0 173.781,77.957 173.781,173.778997 0,95.824 -77.958,173.783 -173.781,173.783 -95.823,0 -173.781021,-77.959 -173.781021,-173.783 z"
   id="path119"
   inkscape:connector-curvature="0"
   style="fill:#ffffff" />&#10;<path
   d="m 369.08702,186.89084 c 0,-60.625 -33.114,-116.652997 -86.421,-146.218997 l -1.113,-0.618 c 0,0 -37.832,39.312 -38.785,40.302 -0.082,0 -0.198,0 -0.198,0 0,0 -0.586,0.586 -0.622,0.623 -12.407,-4.604 -25.651,-7.077 -39.413,-7.272 0,0 -0.001,0 -0.002,0 -14.049,0 -28.583,2.603 -41.152,7.268 -1.386,-1.447 -38.778,-40.498 -38.778,-40.498 l -1.118,0.626 c -0.401,0.225 -0.791,0.465 -1.19,0.692 l -0.066,-0.069 c -30.309021,17.201 -54.727021,43.616 -69.426021,75.412997 0.028,0.029 0.057,0.058 0.085,0.086 -9.974,21.533 -15.392,45.238 -15.392,69.667 0,39.853 14.311,77.017 41.385,107.477 l 1.18,1.327 22.152021,-22.633 -1.220012,-1.157 c -11.993009,-11.381 -34.073009,-43.062 -34.073009,-83.156 0,-1.097 0.016,-2.2 0.05,-3.312 0.564,-16.099 3.413,-31.175 8.508,-45.178 6.194,6.314 12.375,12.617 18.536,18.896 -1.946,7.679 -3.014,15.535 -3.113,23.424 -0.006,0.468 -0.009,0.937 -0.009,1.404 0,50.723 35.099021,96.193 84.083021,109.013 0,2.259 0,28.525 0,28.525 h 30.763 c 0,0 0,-22.143 0,-24.942 6.914,-0.151 13.831,-0.988 20.631,-2.445 14.784,15.098 29.643,30.278 44.636,45.611 31.561,-13.828 58.056,-37.144 75.838,-66.331 l -0.026,-0.027 c 15.773,-25.876 24.27,-55.78 24.27,-86.497 z m -196.111,71.82 c -31.515,-11.421 -51.743,-38.621 -52.435,-70.477 17.518,17.856 34.967,35.645 52.435,53.46 0,9.034 0,15.76 0,17.017 z m 29.297,-135.549 c -1.884,-1.924 -13.432,-13.715 -16.608,-16.959 5.684,-1.093 11.435,-1.692 15.268,-1.517 6.074,0.188 11.595,0.896 16.838,2.09 -2.939,3.108 -13.657,14.441 -15.498,16.386 z m 118.63,125.557 -98.438,-101.536 c 11.845,-12.512 24.7,-26.092 25.714,-27.162 10.336,7.291 18.725,16.836 24.276,27.725 l 0.96,1.882 24.738,-21.369 -0.711,-1.193 c -6.73,-11.291 -16.1,-21.653 -27.076,-30.166997 2.058,-2.107 14.699,-15.045 16.385,-16.771 25.5,18.32 50.94,59.906997 50.94,105.258997 0.001,26.564 -6.146,45.791 -16.788,63.332 z"
   id="path121"
   inkscape:connector-curvature="0"
   style="fill:#630b57;fill-opacity:1" />&#10;<path
   d="m 282.58002,47.269843 c -6.822,7.091 -36.65,38.085 -36.65,38.085 l -0.719,0.746 h -0.26 c -0.228,0.227 -0.419,0.418 -0.419,0.418 l -1.116,1.116 -1.473,-0.562 -1.003,-0.383 c -12.064,-4.611 -25.006,-7.049 -38.428,-7.241 -13.499,-0.005 -28.22,2.656 -40.143,7.238 l -2.538,0.973 -1.118,-1.167 c 0,0 -30.25,-31.59 -37.136,-38.782 -49.627021,29.026 -80.339021,82.057997 -80.336021,139.179997 0.007,37.006 12.799,71.536 37.083,100.324 3.517,-3.592 10.477,-10.702 13.815,-14.114 -13.053,-13.99 -32.917,-45.195 -32.963,-84.371 0,-1.152 0.018,-2.312 0.054,-3.485 1.535,-44.657 20.111,-82.024 54.906021,-110.474997 l 2.911,-2.385 24.701,25.547 -3.689,2.782997 c -26.831,20.23 -43.036021,50.925 -43.413021,81.936 -0.005,0.443 -0.008,0.89 -0.008,1.332 -0.018,48.522 33.903021,92.112 80.980021,103.811 l 3.103,0.77 v 1.903 c 0,0.022 0,18.279 0,25.313 4.773,0 14.503,0 19.276,0 0,-2.692 0,-6.979 0,-11.088 0,-5.859 0,-11.344 0,-11.354 v -2.418 l 4.062,-0.022 c 29.95,-0.17 60.276,-14.049 79.819,-36.258 -3.511,-3.549 -11.359,-11.481 -15.094,-15.256 -18.851,20.302 -44.958,30.726 -62.757,30.782 -0.736,0 -1.453,-0.018 -2.155,-0.051 l -3.876,-0.202 v -29.415 h 2.431 c 0.028,0 23.244,0 31.234,0.002 0,-4.288 0,-12.422 0,-16.71 -7.996,0 -31.234,0 -31.234,0.003 h -2.431 v -23.834 h 2.431 c 0,0 23.604,0 31.666,0.003 0,-3.815 0,-10.535 0,-14.348 -9.657,0 -43.715,0 -53.373,0 0,13.64 0,77.783 0,77.783 v 3.372 l -5.379,-1.792 c -35.629,-11.85 -58.597,-42.586 -58.577,-78.425 0,-0.557 0.005,-1.118 0.018,-1.68 0.618,-28.792 14.41,-54.742 37.779,-71.039 l 2.852,-1.991 1.44,1.485 c 0,0 36.657,37.819 45.407,46.845 8.514,-8.993 43.716,-46.177 43.716,-46.177 l 1.422,-1.502 2.877,1.955 c 10.19,6.924 18.653,15.911 24.769,26.185 4.129,-3.565 12.08,-10.434 15.616,-13.489 -6.482,-10.035 -15.109,-19.292 -25.186,-26.844 l -3.728,-2.795997 24.321,-24.895 2.841,1.963 c 27.314,18.967 54.46,62.719997 54.528,110.815997 0.043,38.286 -13.03,63.132 -32.474,87.015 3.644,3.646 12.111,12.119 16.084,16.094 23.424,-28.57 36.299,-64.467 36.297,-101.604 10e-4,-57.495 -30.873,-110.689997 -80.763,-139.622997 z m -78.5,82.337997 -1.736,1.832 -28.041,-28.632 7.138,-1.616 c 6.373,-1.437997 12.986,-2.279997 18.008,-2.282997 0.592,0 1.169,0.011 1.688,0.036 7.531,0.232 14.379,1.187997 20.876,2.928997 l 6.624,1.774 z"
   id="path123"
   inkscape:connector-curvature="0"
   style="fill:#febe10" />&#10;</svg>
