<svg width="686" height="390" viewBox="0 0 686 390" fill="none" xmlns="http://www.w3.org/2000/svg">
<path d="M623.575 390H301.153C301.153 390 213.653 368.76 223.481 297.719C239.861 248.558 262.925 265.873 310.18 224.44C341.579 194.956 305.237 133.685 329.225 115.36C373.306 84.6407 458.702 149.074 470.809 160.719C480.273 169.856 490.291 174.973 502.9 171.877C549.296 160.472 576.589 150.942 600.869 171.215C629.261 194.934 566.878 251.575 594.113 278.732C621.348 305.89 652.914 273.288 661.367 308.063C667.278 342.104 623.575 336.907 623.575 390Z" fill="#0A1A2F"/>
<g clip-path="url(#clip0_117_6551)">
<path d="M390 299.528H0V390H390V299.528Z" fill="#5FC694"/>
<g opacity="0.27">
<g opacity="0.27">
<path d="M42.5132 299.528H0V390H42.5132V299.528Z" fill="white"/>
</g>
<g opacity="0.27">
<path d="M198.534 299.528H153.188V390H198.534V299.528Z" fill="white"/>
</g>
<g opacity="0.27">
<path d="M272.963 299.528H228.188V390H272.963V299.528Z" fill="white"/>
</g>
<g opacity="0.27">
<path d="M339.444 299.528H302.621V390H339.444V299.528Z" fill="white"/>
</g>
<g opacity="0.27">
<path d="M390 299.528H369.098V390H390V299.528Z" fill="white"/>
</g>
<g opacity="0.27">
<path d="M123.542 299.528H78.9492V390H123.542V299.528Z" fill="white"/>
</g>
</g>
<path d="M390 308.676H0V312.614H390V308.676Z" fill="white"/>
<path d="M188.691 389.901V308.676H184.807V389.901H188.691Z" fill="white"/>
<path d="M301.104 195.179C293.753 189.268 284.444 200.572 291.795 206.475C300.342 213.33 310.778 219.682 317.618 228.327C325.83 238.709 324.741 248.23 313.893 256.052C305.628 262.008 295.916 265.55 286.882 270.151C277.381 274.977 268.189 280.391 259.36 286.359C251.544 291.645 260.122 303.504 267.922 298.226C280.277 289.847 293.311 283.32 306.71 276.853C317.199 271.796 328.641 265.672 334.628 255.207C349.551 229.142 318.167 208.889 301.104 195.179Z" fill="#1C3455"/>
<path d="M262.881 283.137C262.881 283.137 265.334 275.901 269.188 279.329C272.121 281.956 276.44 289.231 278.329 292.506C278.772 293.248 278.999 294.099 278.984 294.963C278.969 295.827 278.713 296.669 278.245 297.396C277.606 298.34 274.962 299.414 273.294 299.346C272.197 302.392 271.397 307.45 266.194 311.852C262.232 315.241 257.51 317.624 252.43 318.799C249.908 319.471 247.236 319.31 244.812 318.342C243.406 317.771 242.194 316.805 241.323 315.562C240.902 314.939 240.64 314.222 240.562 313.475C240.562 313.261 240.455 311.723 240.455 311.723C240.455 311.723 233.112 308.905 237.347 302.308C237.347 302.308 226.218 297.038 240.874 290.023C241.758 289.596 240.112 285.521 242.1 281.842C242.405 281.301 244.538 277.531 248.613 276.32C253.473 274.903 259.445 277.554 262.881 283.137Z" fill="white"/>
<path d="M249.002 319.606C247.499 319.623 246.009 319.322 244.63 318.723C243.161 318.114 241.895 317.099 240.981 315.798C240.529 315.113 240.252 314.329 240.174 313.513C240.174 313.345 240.105 312.423 240.082 311.989C239.32 311.639 236.723 310.321 235.893 307.8C235.359 306.17 235.664 304.373 236.799 302.468C235.755 301.889 232.922 300.061 232.914 297.35C232.906 294.638 235.527 292.163 240.699 289.687C240.782 289.183 240.782 288.669 240.699 288.164C240.6 286.519 240.448 284.043 241.727 281.698C242.139 280.936 244.363 277.219 248.469 275.993C253.458 274.469 259.233 277.097 262.752 282.314C263.277 281.073 264.534 278.62 266.408 278.133C266.945 278.02 267.502 278.047 268.025 278.213C268.549 278.378 269.02 278.676 269.394 279.077C272.441 281.781 276.844 289.261 278.619 292.353C279.097 293.157 279.342 294.079 279.324 295.014C279.307 295.95 279.028 296.862 278.52 297.647C277.827 298.675 275.305 299.719 273.523 299.764C273.378 300.199 273.233 300.663 273.081 301.158C272.136 304.205 270.842 308.432 266.401 312.187C262.389 315.615 257.61 318.024 252.468 319.21C251.33 319.463 250.168 319.595 249.002 319.606ZM251.287 276.343C250.411 276.341 249.538 276.467 248.697 276.716C244.889 277.851 242.794 281.37 242.413 282.048C241.24 284.188 241.377 286.542 241.469 288.096C241.545 289.307 241.59 290.106 241.011 290.381C236.197 292.666 233.653 295.095 233.661 297.35C233.661 300.138 237.469 301.966 237.469 301.981L237.858 302.164L237.629 302.529C236.449 304.365 236.106 306.063 236.586 307.564C237.431 310.154 240.524 311.372 240.554 311.372L240.783 311.456V311.7C240.783 311.7 240.867 313.223 240.89 313.444C240.956 314.128 241.192 314.785 241.575 315.356C242.413 316.531 243.564 317.446 244.896 317.999C246.953 318.913 249.375 319.058 252.293 318.425C257.314 317.269 261.981 314.917 265.898 311.57C270.164 307.96 271.42 303.885 272.342 300.907C272.525 300.305 272.7 299.742 272.883 299.231L272.974 298.972H273.256C274.856 299.041 277.339 297.982 277.872 297.19C278.302 296.523 278.536 295.75 278.548 294.957C278.561 294.164 278.35 293.383 277.941 292.704C276.189 289.657 271.794 282.246 268.869 279.618C268.587 279.303 268.228 279.067 267.827 278.933C267.427 278.8 266.998 278.773 266.583 278.856C264.511 279.397 263.194 283.213 263.178 283.251L262.919 284.013L262.493 283.32C259.888 279.001 255.469 276.343 251.287 276.343Z" fill="black"/>
<path d="M243.249 299.693L237.395 301.893L237.663 302.606L243.517 300.406L243.249 299.693Z" fill="black"/>
<path d="M246.178 308.672L240.297 311.453L240.623 312.142L246.503 309.361L246.178 308.672Z" fill="black"/>
<path d="M249.005 286.025L240.727 289.623L241.03 290.321L249.309 286.724L249.005 286.025Z" fill="black"/>
<path d="M258.48 281.637L257.848 282.056L261.338 287.322L261.97 286.903L258.48 281.637Z" fill="black"/>
<path d="M268.761 291.186L268.137 291.62L270.777 295.418L271.401 294.983L268.761 291.186Z" fill="black"/>
<path d="M201.291 117.968C165.336 108.767 131.629 103.877 94.7071 110.466C85.4823 112.118 87.0896 126.666 96.4287 125.006C113.896 121.891 130.966 120.474 148.685 122.233C166.007 123.955 182.301 128.144 199.089 132.44C208.208 134.771 210.348 120.284 201.291 117.968Z" fill="#1C3455"/>
<path d="M75.9628 108.767C75.9628 108.767 62.0761 102.598 60.0118 106.543C57.9475 110.488 69.7545 114.213 69.7545 114.213L75.9628 108.767Z" fill="white"/>
<path d="M69.8356 114.64L69.6376 114.579C69.2796 114.464 60.9613 111.806 59.5825 108.485C59.4353 108.152 59.3663 107.789 59.3808 107.424C59.3953 107.06 59.493 106.704 59.6663 106.383C61.8373 102.24 74.6651 107.784 76.1201 108.432L76.6609 108.676L69.8356 114.64ZM63.2008 105.599C61.8145 105.599 60.7632 105.918 60.3443 106.718C60.2215 106.939 60.1527 107.186 60.1434 107.439C60.1342 107.692 60.1847 107.943 60.291 108.173C61.426 110.93 68.3807 113.36 69.6605 113.786L75.2593 108.874C72.2732 107.586 66.6973 105.599 63.2008 105.599Z" fill="black"/>
<path d="M71.7887 110.984C71.7887 110.984 56.6147 106.322 54.8246 110.755C53.0345 115.188 65.7861 117.549 65.7861 117.549L71.7887 110.984Z" fill="white"/>
<path d="M65.9289 117.96L65.7157 117.922C65.3424 117.846 56.4223 116.163 54.6017 112.85C54.4076 112.512 54.2941 112.135 54.2703 111.746C54.2465 111.358 54.3131 110.969 54.4646 110.61C55.2873 108.592 58.5019 107.99 64.0322 108.828C66.6913 109.26 69.3197 109.863 71.9011 110.633L72.4724 110.808L65.9289 117.96ZM59.7359 109.224C57.4507 109.224 55.6758 109.666 55.1654 110.9C55.0548 111.153 55.0061 111.428 55.0233 111.704C55.0406 111.979 55.1232 112.247 55.2645 112.484C56.788 115.226 64.2988 116.856 65.6395 117.13L71.086 111.174C68.3208 110.367 63.4075 109.224 59.7359 109.224Z" fill="black"/>
<path d="M76.3737 120.124C77.6436 120.281 78.8441 120.79 79.8396 121.594C80.1392 121.803 80.3885 122.076 80.5695 122.394C80.7506 122.711 80.8589 123.065 80.8866 123.429C80.9143 123.794 80.8607 124.16 80.7297 124.501C80.5987 124.842 80.3936 125.15 80.1291 125.402C78.3999 127.207 75.5586 127.017 73.3648 127.017C70.6682 127.017 67.8574 126.704 65.2522 127.672C63.5459 128.304 62.2052 130.132 63.5763 132.15C64.5818 133.613 66.2653 134.253 67.7126 134.862C76.9145 138.724 90.4584 139.15 94.488 128.159C94.6709 127.664 95.1736 127.459 95.4859 127.07C97.1237 128.807 101.58 129.028 101.664 125.113C101.802 120.293 101.534 115.469 100.864 110.694C100.544 108.455 100.483 105.995 97.9769 105.56C95.4707 105.126 94.7547 107.533 94.5262 109.727C88.9121 109.506 83.3513 106.345 77.7067 107.16C72.2298 107.922 66.2805 111.509 61.1006 113.748C59.3029 114.51 52.79 116.414 54.8162 120.009C56.0959 122.294 59.9351 121.86 61.8471 121.754C64.8941 121.571 67.8269 120.862 70.8206 120.39C72.6489 120.033 74.5195 119.943 76.3737 120.124Z" fill="white"/>
<path d="M79.596 137.749C75.4628 137.694 71.379 136.843 67.568 135.243L67.3166 135.136C65.8921 134.542 64.2696 133.864 63.2641 132.402C62.9655 132.019 62.7628 131.571 62.6727 131.094C62.5826 130.617 62.6078 130.125 62.7461 129.66C62.9457 129.125 63.263 128.642 63.6743 128.247C64.0857 127.851 64.5807 127.553 65.1228 127.375C67.2937 126.567 69.6018 126.613 71.8261 126.674H73.3496H73.9057C76.0005 126.674 78.3696 126.712 79.8397 125.151C80.0587 124.943 80.2321 124.693 80.3488 124.415C80.4655 124.137 80.5231 123.837 80.5177 123.536C80.4843 123.209 80.3839 122.891 80.2227 122.604C80.0615 122.318 79.843 122.067 79.5808 121.868C78.6436 121.101 77.5074 120.618 76.3052 120.474C74.4845 120.314 72.6502 120.416 70.8587 120.779C69.9218 120.923 68.9848 121.091 68.0479 121.266C66.0024 121.678 63.9345 121.971 61.8549 122.142H61.4511C59.3335 122.279 55.7837 122.508 54.4735 120.185C54.2488 119.829 54.1068 119.427 54.058 119.009C54.0092 118.591 54.0549 118.168 54.1917 117.77C54.9534 115.706 58.1528 114.464 60.0724 113.726C60.4151 113.596 60.7122 113.482 60.9331 113.383C62.2967 112.789 63.6983 112.111 65.1837 111.395C69.3048 109.407 73.5629 107.35 77.6383 106.764C80.9595 106.292 84.2655 107.16 87.4649 107.998C89.6508 108.655 91.896 109.097 94.1682 109.315C94.412 107.518 94.93 106.269 95.8212 105.637C96.1354 105.407 96.4948 105.247 96.8757 105.166C97.2566 105.086 97.6502 105.088 98.0303 105.172C100.567 105.614 100.872 107.929 101.138 109.978C101.138 110.191 101.192 110.412 101.222 110.626C101.895 115.418 102.165 120.259 102.029 125.097C102.073 125.79 101.897 126.479 101.526 127.065C101.156 127.652 100.609 128.107 99.9651 128.365C99.214 128.62 98.4112 128.684 97.6292 128.551C96.8473 128.418 96.1107 128.092 95.486 127.603L95.3032 127.756C95.1023 127.889 94.9395 128.073 94.8309 128.289C94.2222 130.058 93.2475 131.679 91.9705 133.046C90.6935 134.414 89.1427 135.497 87.4191 136.225C84.9437 137.265 82.2807 137.784 79.596 137.749ZM70.1884 127.39C68.5606 127.329 66.9351 127.561 65.3894 128.076C64.9538 128.217 64.5557 128.455 64.2246 128.771C63.8936 129.088 63.6382 129.475 63.4774 129.904C63.3778 130.255 63.3639 130.625 63.4368 130.983C63.5097 131.341 63.6673 131.676 63.8963 131.96C64.7876 133.247 66.1816 133.841 67.6137 134.428L67.8651 134.535C73.1973 136.766 81.0433 138.206 87.1373 135.555C88.7653 134.866 90.2299 133.841 91.436 132.549C92.6421 131.256 93.5627 129.724 94.1378 128.053C94.2856 127.705 94.5286 127.407 94.8386 127.192C94.9683 127.092 95.0882 126.98 95.1966 126.857L95.4708 126.514L95.7679 126.834C96.2893 127.316 96.9299 127.65 97.6237 127.801C98.3174 127.953 99.039 127.916 99.7138 127.695C100.215 127.49 100.638 127.13 100.921 126.669C101.205 126.207 101.334 125.668 101.291 125.128C101.429 120.328 101.161 115.525 100.491 110.77L100.399 110.115C100.133 108.066 99.9042 106.307 97.9236 105.956C97.6469 105.89 97.3589 105.885 97.0799 105.941C96.8009 105.998 96.5377 106.115 96.3087 106.284C95.547 106.832 95.09 108.043 94.9072 109.795L94.869 110.146H94.5187C92.0691 109.96 89.6474 109.505 87.2972 108.79C84.1665 107.967 80.9443 107.114 77.7678 107.571C73.8143 108.143 69.6094 110.176 65.5417 112.141C64.0182 112.903 62.6394 113.543 61.2607 114.144C61.0322 114.243 60.7275 114.358 60.3695 114.495C58.686 115.142 55.5552 116.353 54.9306 118.09C54.8313 118.385 54.8003 118.699 54.8398 119.007C54.8794 119.316 54.9886 119.612 55.1591 119.872C56.2332 121.776 59.4858 121.571 61.4283 121.441H61.832C63.8783 121.273 65.9131 120.986 67.926 120.581C68.8706 120.405 69.8151 120.23 70.7597 120.086C72.6266 119.709 74.5387 119.609 76.4347 119.788C77.771 119.94 79.0365 120.468 80.0835 121.312C80.4256 121.577 80.7092 121.91 80.9163 122.29C81.1234 122.671 81.2497 123.089 81.2871 123.521C81.3024 123.926 81.2324 124.33 81.0814 124.707C80.9305 125.083 80.7021 125.424 80.4111 125.707C78.7047 127.481 76.0463 127.451 73.9134 127.436H73.3649H71.8414C71.2777 127.39 70.7521 127.39 70.1884 127.39Z" fill="black"/>
<path d="M94.9528 109.791L94.1914 109.814L94.3265 114.26L95.0879 114.237L94.9528 109.791Z" fill="black"/>
<path d="M95.679 123.689L94.918 123.723L95.0549 126.774L95.8159 126.74L95.679 123.689Z" fill="black"/>
<path d="M153.24 211.684C138.386 218.273 123.585 225.128 109.874 233.902C98.0362 241.474 84.6218 251.459 79.5181 265.055C74.8867 277.402 75.8693 291.257 77.728 304.076C79.4757 316.772 82.5392 329.251 86.869 341.314C92.669 338.93 98.3257 336.211 103.81 333.171C101.083 325.212 98.2648 316.087 96.7641 307.838C94.814 297.091 92.7954 284.348 95.8728 273.654C99.1636 262.229 111.87 254.224 121.43 248.237C133.412 240.704 146.202 234.74 159.128 229.013C169.778 224.283 164.034 206.901 153.24 211.684Z" fill="#1C3455"/>
<path d="M90.6106 332.753C90.6106 332.753 92.4388 319.743 88.4853 314.472C86.1543 311.365 80.9364 313.208 80.8678 317.054L80.7383 329.127C82.7978 330.505 85.0703 331.534 87.4645 332.174C88.4978 332.443 89.5492 332.636 90.6106 332.753Z" fill="#333333"/>
<path d="M90.9367 333.171H90.5711C86.9839 332.777 83.5462 331.518 80.5541 329.5L80.3789 329.386L80.5084 317.108C80.5285 316.138 80.8568 315.2 81.4457 314.429C82.0345 313.658 82.8534 313.094 83.7839 312.82C84.6672 312.505 85.6275 312.479 86.5267 312.744C87.426 313.01 88.2178 313.553 88.7886 314.297C92.7878 319.629 91.0738 332.303 90.9901 332.844L90.9367 333.171ZM81.1483 328.937C83.1225 330.234 85.2936 331.204 87.5774 331.808C88.4676 332.037 89.3706 332.212 90.2816 332.334C90.533 330.186 91.6223 319.294 88.1792 314.716C87.7063 314.096 87.0473 313.645 86.2988 313.427C85.5504 313.209 84.7517 313.236 84.02 313.505C83.2411 313.73 82.5543 314.198 82.0597 314.841C81.5651 315.483 81.2885 316.267 81.2701 317.077L81.1483 328.937Z" fill="black"/>
<path d="M101.442 357.774C100.181 358.575 98.8277 359.222 97.4123 359.701C91.6382 361.818 41.4314 365.192 38.9785 361.361C32.5875 351.391 57.9461 344.81 60.4675 344.033C60.4675 344.033 74.0266 339.859 80.8747 328.685C80.8747 328.685 90.229 337.163 102.546 328.685C103.042 328.35 106.637 345.442 104.39 354.018C103.903 355.59 102.853 356.927 101.442 357.774Z" fill="#FFD700"/>
<path d="M53.6594 363.509C46.3237 363.509 39.6127 363.082 38.6606 361.59C38.1022 360.824 37.7407 359.934 37.6079 358.996C37.475 358.058 37.5749 357.102 37.8988 356.212C39.5899 351.718 46.9027 347.575 59.6391 343.896L60.3171 343.69C60.4542 343.69 73.8076 339.448 80.5186 328.51L80.7548 328.114L81.0976 328.426C82.8871 329.88 84.9639 330.939 87.1916 331.534C92.2191 332.897 97.2999 331.854 102.297 328.419L102.518 328.274L102.769 328.426C103.622 329.02 106.928 345.739 104.719 354.156C104.209 355.803 103.104 357.201 101.619 358.078C100.334 358.909 98.9525 359.582 97.5056 360.081C94.6338 361.133 80.9147 362.519 66.929 363.128C63.1355 363.349 58.2756 363.509 53.6594 363.509ZM60.5761 344.406L59.8829 344.612C44.3203 349.106 39.7422 353.539 38.6453 356.463C38.3553 357.239 38.2627 358.075 38.3757 358.895C38.4888 359.715 38.8039 360.495 39.2928 361.163C40.0089 362.283 47.672 363.28 66.9214 362.389C80.6329 361.757 94.512 360.363 97.2695 359.343C98.6612 358.868 99.9891 358.223 101.223 357.423C102.55 356.645 103.545 355.406 104.019 353.942C105.991 346.417 103.257 331.61 102.427 329.249C91.4954 336.515 82.7886 330.666 80.9681 329.249C74.3789 339.669 61.871 344.018 60.5761 344.414V344.406Z" fill="black"/>
<path d="M97.757 343.454C97.5971 338.122 100.187 334.116 103.089 330.323C104.255 334.984 106.22 348.542 103.782 355.085C103.653 354.955 97.9856 350.72 97.757 343.454Z" fill="#333333"/>
<path d="M103.986 355.702L103.575 355.382C102.95 354.91 97.5951 350.591 97.3742 343.462C97.2066 337.841 100.094 333.613 102.821 330.094L103.301 329.47L103.491 330.231C104.557 334.52 106.706 348.405 104.169 355.214L103.986 355.702ZM102.935 331.199C100.353 334.603 97.9835 338.389 98.1359 343.439C98.3187 349.388 102.265 353.28 103.628 354.445C105.7 348.016 103.994 335.99 102.935 331.199Z" fill="black"/>
<path d="M83.2604 341.55C80.5288 343.543 77.5179 345.121 74.3251 346.234C70.2116 347.748 65.9503 348.826 61.6115 349.448C57.3437 350.172 52.9826 350.149 48.7227 349.38C48.3647 349.304 48.0067 349.22 47.6562 349.129C51.7778 347.061 56.0759 345.366 60.4993 344.063C60.4993 344.063 74.0585 339.889 80.9066 328.716C83.5178 330.831 86.7003 332.119 90.0476 332.417C88.7082 336.05 86.3521 339.22 83.2604 341.55Z" fill="#333333"/>
<path d="M54.9224 350.355C52.805 350.368 50.6919 350.166 48.6151 349.753C48.3181 349.692 48.021 349.624 47.7315 349.547L46.5508 349.258L47.4496 348.793C51.5947 346.725 55.9124 345.023 60.3537 343.705C60.4908 343.705 73.8595 339.44 80.5552 328.525L80.7914 328.129L81.1342 328.441C83.6871 330.492 86.7863 331.747 90.0466 332.052L90.5418 332.098L90.3742 332.562C89.0289 336.256 86.6489 339.484 83.5185 341.862C80.7625 343.882 77.72 345.479 74.4917 346.6C70.3216 348.113 66.0043 349.186 61.6106 349.799C59.3976 350.146 57.1623 350.332 54.9224 350.355ZM48.7294 349.037C52.9433 349.805 57.2592 349.828 61.4811 349.106C65.8055 348.484 70.0535 347.415 74.1565 345.914C77.3152 344.819 80.2913 343.255 82.9852 341.276C85.8814 339.092 88.117 336.15 89.4448 332.775C86.3482 332.404 83.4076 331.21 80.9285 329.317C74.0118 340.209 60.6812 344.414 60.5441 344.459C56.4925 345.675 52.5422 347.205 48.7294 349.037Z" fill="black"/>
<path d="M95.7887 360.378C95.7887 360.569 95.7278 360.752 95.6897 360.942C95.2098 363.067 93.9453 364.606 92.856 364.354C91.9495 364.149 91.4544 362.77 91.5991 361.087L95.7887 360.378Z" fill="black"/>
<path d="M93.0947 364.766C92.9884 364.777 92.8811 364.777 92.7747 364.766C91.6778 364.514 91.0532 363.044 91.2512 361.094V360.797L96.2407 359.952L96.1645 360.477C96.1645 360.676 96.1036 360.866 96.0579 361.064C95.8386 362.419 95.1216 363.644 94.0469 364.499C93.7607 364.675 93.4308 364.768 93.0947 364.766ZM91.9597 361.414C91.9064 362.762 92.3101 363.844 92.9423 363.989C93.0644 364.009 93.1893 364.004 93.3096 363.976C93.43 363.947 93.5434 363.894 93.6431 363.821C94.537 363.065 95.1313 362.014 95.319 360.858L91.9597 361.414Z" fill="black"/>
<path d="M97.6562 360.15C97.7934 361.765 98.4713 362.976 99.3702 363.06C100.482 363.151 101.503 361.468 101.655 359.297C101.698 358.869 101.698 358.438 101.655 358.01C100.414 358.883 99.0712 359.601 97.6562 360.15Z" fill="black"/>
<path d="M99.4598 363.44H99.338C98.2411 363.349 97.4336 362.069 97.2812 360.196V359.921L97.525 359.815C98.8983 359.268 100.204 358.565 101.418 357.72L101.951 357.294L102.035 357.972C102.077 358.422 102.077 358.876 102.035 359.327C102.002 360.7 101.459 362.012 100.511 363.006C100.221 363.267 99.8497 363.421 99.4598 363.44ZM98.0658 360.394C98.2258 361.681 98.7743 362.625 99.4065 362.679C99.6506 362.683 99.8861 362.589 100.062 362.42C100.834 361.549 101.267 360.43 101.28 359.266C101.28 359.076 101.28 358.886 101.28 358.703C100.253 359.347 99.1788 359.913 98.0658 360.394Z" fill="black"/>
<path d="M60.8948 363.509C60.8948 363.699 60.8948 363.89 60.8948 364.088C60.8948 366.266 59.9883 368.018 58.8762 367.995C57.764 367.972 56.8576 366.19 56.8576 364.012C56.8496 363.915 56.8496 363.819 56.8576 363.722L60.8948 363.509Z" fill="black"/>
<path d="M58.9135 368.353C57.5728 368.353 56.5216 366.411 56.5216 363.989C56.5136 363.872 56.5136 363.755 56.5216 363.638L56.5749 363.334L61.252 363.09V363.463C61.252 363.661 61.252 363.852 61.252 364.065C61.3309 365.426 60.899 366.768 60.0408 367.828C59.7464 368.141 59.3428 368.329 58.9135 368.353ZM57.2604 364.057C57.2604 366.129 58.1365 367.576 58.9059 367.592C59.0296 367.592 59.1518 367.564 59.2638 367.512C59.3757 367.459 59.4746 367.382 59.5533 367.287C60.2576 366.366 60.6065 365.222 60.536 364.065V363.89L57.2604 364.057Z" fill="black"/>
<path d="M53.9943 363.768C54.0019 363.859 54.0019 363.951 53.9943 364.042C53.9943 366.221 53.0954 367.972 51.9756 367.957C50.8559 367.942 49.9646 366.152 49.957 363.974V363.844L53.9943 363.768Z" fill="black"/>
<path d="M51.9894 368.33C50.6487 368.33 49.5975 366.396 49.5898 363.974V363.509L54.3203 363.418L54.366 363.745C54.3774 363.857 54.3774 363.969 54.366 364.08C54.447 365.44 54.0178 366.782 53.1624 367.843C52.8515 368.154 52.4296 368.33 51.9894 368.33ZM50.3288 364.217C50.3973 366.19 51.2276 367.561 51.9741 367.569C52.0977 367.568 52.2196 367.54 52.3314 367.488C52.4432 367.435 52.5422 367.359 52.6216 367.264C53.3125 366.38 53.6614 365.277 53.6043 364.156L50.3288 364.217Z" fill="black"/>
<path d="M46.9167 363.509C47.1757 365.672 46.4749 367.508 45.3932 367.607C44.3115 367.706 43.1764 366.022 42.9251 363.867C42.8913 363.584 42.876 363.299 42.8794 363.014L46.9167 363.509Z" fill="black"/>
<path d="M45.2692 368.018C43.9818 368.018 42.7859 366.266 42.5117 363.943C42.4756 363.64 42.4604 363.334 42.466 363.029V362.61L47.2573 363.197V363.494C47.4988 364.833 47.2268 366.215 46.4956 367.363C46.3604 367.543 46.1902 367.694 45.9951 367.807C45.8001 367.919 45.5842 367.991 45.3606 368.018H45.2692ZM43.2353 363.448C43.2353 363.57 43.2353 363.692 43.2353 363.829C43.4791 365.923 44.5227 367.302 45.2844 367.234C45.406 367.216 45.5227 367.174 45.6275 367.11C45.7322 367.045 45.8228 366.961 45.8938 366.86C46.4466 365.964 46.6727 364.904 46.5337 363.859L43.2353 363.448Z" fill="black"/>
<path d="M71.4251 338.4L70.9844 339.022L81.4534 346.447L81.8941 345.826L71.4251 338.4Z" fill="black"/>
<path d="M64.2212 342.412L63.7656 343.022L73.6437 350.393L74.0993 349.782L64.2212 342.412Z" fill="black"/>
<path d="M56.9825 345.029L56.5 345.619L66.0435 353.429L66.526 352.84L56.9825 345.029Z" fill="black"/>
<path d="M317.186 188.682C315.221 191.203 313.461 193.374 312.859 194.075C311.884 195.217 310.902 196.36 309.889 197.472C265.806 246.782 171.654 299.056 114.256 239.661C90.5583 215.127 86.7495 179.664 112.032 154.81C135.997 131.275 171.662 123.224 200.715 107.861C201.476 107.48 202.147 107.099 202.832 106.703C232.068 90.2127 248.172 60.0961 276.722 43.7963C313.865 22.5836 347.382 60.5531 352.135 95.3768C352.682 99.1593 352.827 102.989 352.569 106.802C352.258 111.221 351.691 115.618 350.871 119.971C347.58 137.49 340.084 155.084 329.496 171.674C329.298 172.001 329.092 172.314 328.887 172.656C327.363 174.987 325.794 177.272 324.187 179.557C322.853 181.408 319.799 185.369 317.133 188.697" fill="#FFD700"/>
<path d="M177.298 266.517C152.328 266.517 131.037 257.575 113.981 239.927C102.106 227.642 95.1509 212.507 94.3968 197.38C93.635 181.324 99.6071 166.51 111.765 154.551C127.853 138.747 149.387 129.82 170.214 121.19C180.406 116.97 190.933 112.606 200.531 107.533C201.156 107.206 201.758 106.87 202.352 106.543L202.649 106.375C217.351 98.0884 228.906 86.1453 240.081 74.5983C251.028 63.2799 262.347 51.5729 276.546 43.4687C289.808 35.8977 303.702 35.2883 316.728 41.7016C334.706 50.5523 349.438 72.6028 352.531 95.3311C353.082 99.1284 353.23 102.973 352.972 106.802C352.656 111.238 352.087 115.653 351.266 120.025C348.044 137.185 340.838 154.627 329.838 171.857L329.632 172.184L329.236 172.831C327.85 174.957 326.357 177.15 324.521 179.755C323.173 181.621 320.133 185.559 317.452 188.895C315.449 191.462 313.712 193.602 313.118 194.303L313.064 194.372C312.12 195.468 311.137 196.611 310.139 197.708C294.318 215.409 273.621 231.915 251.865 244.17C226.796 258.307 201.712 266.015 179.332 266.449L177.298 266.517ZM298.454 38.0685C290.868 38.1748 283.443 40.2764 276.927 44.1618C262.819 52.2127 251.538 63.874 240.622 75.1544C229.417 86.7394 217.823 98.7282 203.022 107.076L202.725 107.236C202.123 107.571 201.514 107.906 200.889 108.234C191.261 113.329 180.71 117.701 170.511 121.944C149.745 130.543 128.279 139.463 112.298 155.138C100.3 166.944 94.3739 181.553 95.1585 197.388C95.9203 212.355 102.776 227.291 114.53 239.447C131.898 257.415 153.699 266.274 179.347 265.779C214.304 265.101 268.136 243.652 309.606 197.266C310.596 196.177 311.571 195.042 312.516 193.945L312.569 193.877C313.14 193.206 314.908 191.028 316.881 188.491C319.554 185.14 322.586 181.21 323.927 179.351C325.747 176.769 327.24 174.576 328.612 172.496C328.741 172.275 328.878 172.062 329.015 171.849L329.221 171.521C340.167 154.368 347.335 137.018 350.55 119.948C351.367 115.608 351.931 111.223 352.241 106.817C352.515 103.008 352.379 99.1802 351.837 95.3997C348.745 72.915 334.18 51.1007 316.424 42.3491C310.845 39.5528 304.694 38.0875 298.454 38.0685Z" fill="black"/>
<path d="M314.982 57.4302C308.012 51.9309 298.078 50.9865 288.808 53.7818C284.027 55.2207 279.532 57.4783 275.523 60.4541C270.115 64.4681 266.077 70.1349 261.591 75.1087C258.391 78.6657 253.554 74.347 256.761 70.7748C261.804 65.1917 266.329 59.0983 272.453 54.6273C277.244 51.1176 282.634 48.5083 288.358 46.9267C299.838 43.8191 311.401 45.152 319.986 51.9309C323.269 54.5206 318.249 60.0123 314.982 57.4302Z" fill="#F9D880"/>
<path d="M249.253 84.4773C246.138 81.6895 251.143 76.1826 254.258 78.978C257.374 81.7733 252.361 87.265 249.253 84.4773Z" fill="#F9D880"/>
<path d="M317.186 188.682C315.221 191.203 313.461 193.374 312.859 194.082C311.884 195.217 310.902 196.367 309.889 197.472C308.875 198.576 307.931 199.642 306.902 200.724C261.7 249.014 170.39 297.746 114.256 239.661C90.5583 215.127 86.7495 179.664 112.032 154.81C132.409 134.801 161.256 125.989 187.293 114.327C191.863 112.294 196.373 110.161 200.715 107.861C201.476 107.48 202.147 107.099 202.832 106.703L194.567 153.355L317.186 188.682Z" fill="#FF7A00"/>
<path d="M177.305 266.51C152.328 266.51 131.029 257.575 113.981 239.927C102.106 227.642 95.1509 212.507 94.3968 197.38C93.635 181.324 99.6071 166.51 111.765 154.551C127.83 138.769 149.342 129.85 170.145 121.22C175.759 118.89 181.571 116.483 187.14 113.985C192.182 111.745 196.562 109.635 200.531 107.533C201.151 107.203 201.753 106.876 202.337 106.551L203.35 105.995L194.97 153.096L317.802 188.476L317.452 188.918C315.449 191.485 313.712 193.625 313.118 194.326C312.127 195.484 311.145 196.611 310.139 197.731C309.134 198.85 308.082 200.016 307.145 200.983C290.223 218.841 270.619 233.952 249.039 245.769C224.465 259.167 199.945 266.335 178.121 266.51H177.305ZM202.321 107.434L200.889 108.196C196.905 110.306 192.51 112.431 187.452 114.67C181.868 117.168 176.026 119.583 170.435 121.914C149.7 130.513 128.257 139.432 112.298 155.084C100.3 166.89 94.3739 181.499 95.1585 197.335C95.9203 212.301 102.776 227.238 114.53 239.394C131.616 257.073 153.021 265.946 178.143 265.74C225.044 265.367 276.462 232.676 306.62 200.457C307.557 199.475 308.532 198.416 309.606 197.213C310.68 196.009 311.587 194.973 312.531 193.869C313.102 193.191 314.702 191.226 316.538 188.888L194.155 153.637L194.216 153.302L202.321 107.434Z" fill="black"/>
<path d="M317.184 188.682C315.219 191.203 313.459 193.374 312.857 194.082C311.882 195.217 310.9 196.367 309.886 197.472C308.873 198.576 307.929 199.642 306.9 200.724L178.043 163.189L187.298 114.335C191.869 112.301 196.378 110.169 200.72 107.868C201.482 107.487 202.152 107.107 202.838 106.711L194.573 153.363L317.184 188.682Z" fill="white"/>
<path d="M307.015 201.151L306.794 201.09L177.602 163.448L177.662 163.105L186.956 114.068L187.139 113.985C192.181 111.745 196.561 109.635 200.53 107.533C201.15 107.203 201.752 106.876 202.336 106.551L203.349 105.995L194.969 153.096L317.801 188.476L317.451 188.918C315.448 191.485 313.711 193.625 313.117 194.326C312.126 195.484 311.144 196.611 310.138 197.731C309.133 198.85 308.081 200.016 307.144 200.983L307.015 201.151ZM178.478 162.907L306.786 200.29C307.662 199.361 308.592 198.355 309.605 197.243C310.618 196.131 311.586 195.004 312.53 193.899C313.101 193.221 314.701 191.256 316.537 188.918L194.154 153.637L194.215 153.302L202.343 107.434L200.911 108.196C196.973 110.283 192.638 112.377 187.657 114.594L178.478 162.907Z" fill="black"/>
<path d="M244.95 218.936L228.93 223.056L217.352 211.25L221.785 195.316L237.805 191.195L249.383 203.001L244.95 218.936Z" fill="white"/>
<path d="M228.813 223.483L216.922 211.357L221.492 195.004L237.938 190.769L249.822 202.895L245.251 219.248L228.813 223.483ZM217.767 211.174L229.041 222.668L244.627 218.654L248.946 203.146L237.68 191.652L222.087 195.666L217.767 211.174Z" fill="black"/>
<path d="M172.131 214C166.049 184.737 154.538 156.871 138.195 131.846C121.757 106.452 101.845 86.7318 77.621 68.8401C67.5888 61.4366 56.292 77.089 66.2557 84.4773C88.255 100.724 106.194 118.402 121.383 141.252C137.053 164.826 147.199 189.664 153.08 217.268C155.662 229.386 174.736 226.21 172.131 214Z" fill="#1C3455"/>
<path d="M68.6875 68.6954C68.6875 68.6954 78.5064 78.4981 85.446 78.5058C89.5518 78.5058 91.3038 72.9379 88.0893 70.4625L77.9961 62.6477C75.5199 63.507 73.2033 64.7707 71.1404 66.3875C70.2672 67.0956 69.4474 67.8669 68.6875 68.6954Z" fill="#333333"/>
<path d="M85.4519 78.8866C78.4285 78.8866 68.8229 69.3657 68.4192 68.9848L68.1602 68.7258L68.4115 68.4516C71.0219 65.6878 74.2629 63.5971 77.8572 62.3582L78.0553 62.2821L88.3237 70.1959C89.1229 70.8278 89.701 71.697 89.9748 72.6784C90.2486 73.6598 90.2039 74.7027 89.8472 75.6571C89.5475 76.5893 88.9613 77.4032 88.1722 77.9831C87.383 78.5629 86.4311 78.8791 85.4519 78.8866ZM69.2266 68.6801C70.8339 70.2035 79.3731 78.1173 85.4519 78.1249C86.2791 78.1179 87.0824 77.8465 87.7444 77.3504C88.4063 76.8544 88.8922 76.1596 89.1311 75.3677C89.425 74.5687 89.4603 73.6976 89.2321 72.8775C89.0038 72.0574 88.5235 71.3298 87.859 70.7976L77.9563 63.1428C75.6014 63.9899 73.3974 65.2088 71.4281 66.7531C70.6542 67.3482 69.9189 67.9919 69.2266 68.6801Z" fill="black"/>
<path d="M40.6996 61.9317C40.8155 60.3499 41.1198 58.7876 41.6061 57.2779C43.4952 51.0626 72.5483 6.57324 77.3473 6.93885C89.8172 7.89094 79.2517 33.4527 78.2995 36.0729C78.2995 36.0729 73.211 50.1715 78.2995 63.0438C78.2995 63.0438 65.1975 65.5497 64.5043 81.3239C64.5043 81.9561 47.7458 74.1109 41.9642 66.7836C40.958 65.3779 40.5075 63.6496 40.6996 61.9317Z" fill="#FFD700"/>
<path d="M64.4879 81.6896C62.8577 81.6896 47.219 74.0728 41.6354 66.9816C40.5834 65.5032 40.1117 63.6896 40.3099 61.886C40.4249 60.2729 40.7344 58.6797 41.2317 57.1408C42.1686 54.056 49.7176 41.6103 58.0587 29.4006C63.9623 20.7632 74.2915 6.28382 77.369 6.55041C78.3633 6.57508 79.3365 6.84272 80.2035 7.32998C81.0706 7.81724 81.8052 8.5093 82.3432 9.34575C85.055 13.6264 83.8667 22.4237 78.9153 35.494C78.8011 35.8063 78.7097 36.0424 78.6564 36.1948C78.4507 36.766 73.6821 50.3467 78.6564 62.8991L78.8239 63.3256L78.3669 63.4094C77.8489 63.5084 65.5543 66.0448 64.8839 81.3087V81.5753L64.6021 81.6896H64.4879ZM41.0412 61.947C40.8626 63.5623 41.2797 65.1874 42.2143 66.517C47.3637 73.0293 61.6237 80.151 64.0917 80.8898C64.8992 66.9816 75.4418 63.3713 77.7423 62.7619C72.9509 50.0648 77.7042 36.507 77.9099 35.9358L78.1841 35.2122C84.2781 19.217 83.4478 12.5448 81.6729 9.74943C81.1987 9.01285 80.5503 8.40443 79.785 7.97799C79.0197 7.55155 78.1612 7.32022 77.2852 7.30446C75.3961 7.17497 68.1442 16.0104 58.6681 29.8424C50.5021 41.7931 42.839 54.3988 41.9096 57.3769C41.4269 58.8585 41.1251 60.393 41.0108 61.947H41.0412Z" fill="black"/>
<path d="M55.1191 67.9185C59.6896 71.1708 61.4492 75.9008 62.7899 80.7831C58.1204 78.8028 45.4296 71.8487 41.4609 65.6335C41.6666 65.5725 48.8423 63.4855 55.1191 67.9185Z" fill="#333333"/>
<path d="M63.3614 81.4458L62.6377 81.1335C58.3415 79.3131 45.2699 72.3057 41.1412 65.8391L40.8594 65.3973L41.3621 65.2678C42.1239 65.047 49.1853 63.2646 55.3402 67.6062C60.1849 71.0337 61.9141 76.1522 63.1558 80.6841L63.3614 81.4458ZM42.0782 65.8696C46.184 71.7345 57.496 77.9726 62.2036 80.1129C60.9696 75.7485 59.2861 71.3232 54.8984 68.2308C49.7261 64.5823 43.8987 65.4659 42.0782 65.8696Z" fill="#333333"/>
<path d="M65.9453 56.897C65.9952 53.3274 66.5754 49.785 67.6669 46.3859C69.009 41.9438 70.8141 37.6549 73.0524 33.5898C75.1557 29.5322 77.947 25.8701 81.3021 22.7664C81.5916 22.5075 81.8963 22.2637 82.1934 22.0048C81.315 26.7951 80.0123 31.498 78.3009 36.0576C78.3009 36.0576 73.2124 50.1562 78.3009 63.0285C74.8605 63.8828 71.7509 65.7383 69.3656 68.3602C67.1551 64.9437 65.9684 60.9661 65.9453 56.897Z" fill="#333333"/>
<path d="M69.2951 69.0229L69.0285 68.604C66.7641 65.1194 65.5601 61.0526 65.5625 56.8971C65.6053 53.2882 66.1908 49.7064 67.2993 46.2717C68.6498 41.8059 70.4651 37.4941 72.7153 33.407C74.8358 29.3065 77.656 25.6076 81.0489 22.477C81.2926 22.2637 81.5364 22.0657 81.8106 21.8677L82.7628 21.106L82.5952 22.1114C81.7131 26.9216 80.408 31.6446 78.695 36.2252C78.6417 36.3699 73.7056 50.339 78.695 62.9295L78.8626 63.356L78.3675 63.4094C75.0084 64.257 71.9742 66.0773 69.6455 68.6421L69.2951 69.0229ZM81.6354 22.9797L81.5592 23.0483C78.228 26.1172 75.4615 29.7471 73.3857 33.7726C71.1668 37.8138 69.3796 42.0773 68.0534 46.4926C66.9671 49.8532 66.3919 53.3579 66.3471 56.8894C66.3392 60.7315 67.3937 64.501 69.3941 67.7814C71.6844 65.3879 74.5798 63.6587 77.7733 62.7772C72.9667 50.0191 77.8952 36.1186 77.9409 35.9434C79.5112 31.726 80.7466 27.3913 81.6354 22.9797Z" fill="black"/>
<path d="M42.0933 55.4956C41.9485 55.3584 41.8112 55.2134 41.682 55.0614C40.1585 53.3019 39.6938 51.253 40.5927 50.4914C41.3544 49.8592 42.8246 50.3162 44.1577 51.512L42.0933 55.4956Z" fill="black"/>
<path d="M42.1839 56.143L41.803 55.7926C41.6583 55.6479 41.5135 55.4956 41.3764 55.3356C40.3751 54.2912 39.7969 52.9125 39.7539 51.4663C39.7641 51.2337 39.8205 51.0054 39.9199 50.7949C40.0193 50.5843 40.1597 50.3957 40.3328 50.24C41.2317 49.4784 42.8619 49.8897 44.393 51.2683L44.6139 51.4587L42.1839 56.143ZM41.4221 50.598C41.2004 50.5864 40.9817 50.6539 40.8051 50.7884C40.7069 50.8801 40.6285 50.9909 40.5747 51.1141C40.521 51.2372 40.4932 51.37 40.4928 51.5044C40.5579 52.7439 41.0693 53.9181 41.9325 54.8101L43.6084 51.573C43.0104 51.0336 42.2599 50.693 41.4602 50.598H41.4221Z" fill="black"/>
<path d="M41.0951 57.2246C39.6478 56.3106 38.1928 56.1125 37.5529 56.8209C36.7912 57.6968 37.553 59.6315 39.2745 61.1472C39.615 61.4355 39.9823 61.6905 40.3714 61.9089C40.4268 60.3243 40.6698 58.752 41.0951 57.2246Z" fill="black"/>
<path d="M40.7764 62.6477L40.1822 62.3049C39.7702 62.0635 39.3825 61.7829 39.0244 61.4671C37.8872 60.5852 37.1189 59.3119 36.8686 57.8948C36.8444 57.6641 36.8678 57.4308 36.9372 57.2094C37.0067 56.988 37.1207 56.7832 37.2723 56.6076C38.0341 55.7622 39.649 55.8993 41.2944 56.9351L41.5305 57.0875L41.462 57.3464C41.0493 58.8553 40.8116 60.4066 40.7535 61.9698L40.7764 62.6477ZM38.6892 56.8133C38.5343 56.8026 38.3789 56.8235 38.2322 56.8745C38.0856 56.9256 37.9508 57.0058 37.836 57.1103C37.7529 57.2173 37.6919 57.3397 37.6566 57.4705C37.6213 57.6012 37.6124 57.7377 37.6304 57.872C37.8755 59.0826 38.5489 60.1644 39.5271 60.9187C39.685 61.0594 39.8503 61.1917 40.0222 61.3148C40.1387 60.0314 40.3501 58.7585 40.6545 57.5064C40.0736 57.097 39.3965 56.8451 38.6892 56.7752V56.8133Z" fill="black"/>
<path d="M61.6471 24.0918C61.4796 23.9775 61.312 23.8709 61.1368 23.7414C59.301 22.3627 58.4021 20.4814 59.1334 19.5522C59.8647 18.6229 61.9366 19.0038 63.7725 20.39L64.0086 20.5804L61.6471 24.0918Z" fill="black"/>
<path d="M61.7562 24.6097L61.4439 24.4117C61.2687 24.2974 61.0934 24.1832 60.9106 24.0461C59.7173 23.2518 58.8641 22.0401 58.5187 20.649C58.4777 20.4172 58.4843 20.1796 58.538 19.9504C58.5917 19.7213 58.6914 19.5055 58.831 19.3161C59.6994 18.2192 61.9695 18.5544 64.0033 20.0777C64.1032 20.1463 64.1974 20.2227 64.2852 20.3062L64.4984 20.5271L61.7562 24.6097ZM60.4231 19.4303C60.2419 19.4138 60.0593 19.4373 59.8881 19.4991C59.717 19.561 59.5616 19.6597 59.4328 19.7883C59.3573 19.8984 59.3042 20.0224 59.2768 20.1532C59.2493 20.2839 59.248 20.4187 59.2728 20.55C59.6006 21.7352 60.3477 22.7611 61.3753 23.4367L61.5428 23.5662L63.5005 20.6566C62.6224 19.946 61.5494 19.5184 60.4231 19.4303Z" fill="black"/>
<path d="M65.8089 18.0745C65.7254 18.0256 65.6464 17.9696 65.5727 17.907C63.7293 16.5283 62.8228 14.6546 63.5541 13.7254C64.2854 12.7961 66.3573 13.1693 68.1932 14.548L68.3074 14.6318L65.8089 18.0745Z" fill="black"/>
<path d="M65.9221 18.562L65.6327 18.4097C65.5337 18.3563 65.4346 18.2802 65.3432 18.2192C64.1457 17.4227 63.2876 16.209 62.9361 14.8146C62.8957 14.584 62.9026 14.3477 62.9562 14.1199C63.0099 13.8921 63.1093 13.6775 63.2484 13.4893C64.1168 12.3848 66.3868 12.7276 68.4207 14.2509L68.7254 14.4794L68.6111 14.8603L65.9221 18.562ZM64.8481 13.6035C64.6655 13.5842 64.4809 13.6063 64.3081 13.6683C64.1353 13.7303 63.9788 13.8305 63.8502 13.9615C63.7731 14.0708 63.7197 14.1951 63.6935 14.3262C63.6673 14.4574 63.6687 14.5926 63.6978 14.7232C64.0121 15.8798 64.7311 16.8852 65.7241 17.5566L67.7732 14.7232C66.9288 14.0716 65.9117 13.6823 64.8481 13.6035Z" fill="black"/>
<path d="M70.4864 12.2706C68.4983 11.1128 67.3937 9.35336 68.0183 8.35556C68.643 7.35777 70.7606 7.48726 72.7412 8.645C73.0043 8.79813 73.2586 8.96596 73.5029 9.1477L70.4864 12.2706Z" fill="black"/>
<path d="M70.5436 12.7504L70.2923 12.5981C69.0119 11.955 68.0235 10.8497 67.5272 9.50569C67.4606 9.28029 67.4411 9.04363 67.47 8.81039C67.4988 8.57716 67.5753 8.35233 67.6947 8.14991C68.4565 6.9617 70.7417 7.03787 72.9279 8.31748C73.1946 8.47627 73.4492 8.65447 73.6897 8.85065L74.0172 9.11724L70.5436 12.7504ZM69.6296 8.06613C69.3914 8.03481 69.1492 8.06294 68.9246 8.148C68.6999 8.23305 68.4999 8.3724 68.3422 8.5536C68.2779 8.66854 68.238 8.79548 68.2249 8.92652C68.2118 9.05756 68.2258 9.18988 68.266 9.31527C68.6743 10.3625 69.4372 11.2332 70.4218 11.7755L72.9127 9.19341L72.547 8.97252C71.6681 8.42574 70.6636 8.11365 69.6296 8.06613Z" fill="black"/>
<path d="M75.9543 48.1956L63.0312 52.2995L63.2618 53.0255L76.1849 48.9215L75.9543 48.1956Z" fill="black"/>
<path d="M77.1181 39.5003L64.625 43.1603L64.8392 43.8913L77.3323 40.2313L77.1181 39.5003Z" fill="black"/>
<path d="M79.5788 31.7774L66.9219 34.8555L67.1019 35.5956L79.7588 32.5175L79.5788 31.7774Z" fill="black"/>
<path d="M297.363 105.301C307.906 94.539 321.846 90.7611 329.958 96.0166C330.68 96.4779 331.352 97.014 331.962 97.6162C339.579 105.081 336.479 120.634 324.999 132.356C313.52 144.078 298.048 147.506 290.416 140.034C289.801 139.437 289.251 138.776 288.778 138.061C283.354 130.063 286.82 116.064 297.363 105.301Z" fill="white"/>
<path d="M301.057 144.368C296.654 144.368 292.891 142.981 290.149 140.3C289.516 139.684 288.949 139.002 288.458 138.267C282.882 130.041 286.592 115.752 297.096 105.027C307.601 94.2953 321.823 90.2812 330.164 95.6891C330.909 96.1619 331.601 96.7134 332.228 97.3343C336.037 101.036 337.362 106.764 336.037 113.459C334.711 120.154 330.887 126.895 325.289 132.615C319.69 138.335 312.971 142.288 306.367 143.751C304.625 144.15 302.844 144.357 301.057 144.368ZM321.312 94.0439C313.824 94.0439 304.859 98.195 297.637 105.56C287.384 116.033 283.712 129.934 289.09 137.84C289.553 138.534 290.086 139.177 290.682 139.76C294.278 143.279 299.823 144.429 306.184 143.012C312.545 141.595 319.233 137.68 324.725 132.082C330.217 126.484 333.973 119.804 335.275 113.307C336.578 106.81 335.275 101.394 331.695 97.8751C331.102 97.302 330.451 96.7915 329.752 96.3518C327.222 94.7804 324.29 93.9785 321.312 94.0439Z" fill="black"/>
<path d="M288.777 138.053C294.201 135.768 305.536 129.378 311.851 123.856L308.682 116.239L317.823 117.671C323.208 111.227 327.809 101.508 330.011 96.0319C321.898 90.7763 307.92 94.5542 297.416 105.317C286.911 116.079 283.354 130.063 288.777 138.053Z" fill="black"/>
<path d="M288.61 138.526L288.435 138.274C282.859 130.041 286.568 115.752 297.073 105.027C307.577 94.3029 321.799 90.2812 330.14 95.6891L330.399 95.8567L330.285 96.1461C327.832 102.377 323.155 111.814 318.097 117.892L317.96 118.059L309.291 116.727L312.338 123.993L312.133 124.176C305.635 129.843 294.3 136.21 288.953 138.442L288.61 138.526ZM321.289 94.0439C313.801 94.0439 304.835 98.1874 297.614 105.56C287.475 115.919 283.765 129.606 288.892 137.551C294.224 135.266 305.018 129.172 311.371 123.719L308.042 115.698L317.632 117.222C322.523 111.303 327.017 102.262 329.462 96.1461C326.992 94.7067 324.171 93.9791 321.312 94.0439H321.289Z" fill="black"/>
<path d="M244.703 53.6447C255.245 42.8746 269.186 39.1043 277.291 44.3523C278.015 44.8137 278.689 45.3498 279.302 45.9518C286.919 53.4238 283.819 68.9772 272.339 80.6994C260.86 92.4215 245.381 95.8491 237.756 88.377C237.138 87.7804 236.586 87.119 236.11 86.4043C230.717 78.4143 234.16 64.4072 244.703 53.6447Z" fill="white"/>
<path d="M248.389 92.711C243.994 92.711 240.224 91.3323 237.489 88.6513C236.855 88.033 236.286 87.3515 235.79 86.6176C230.214 78.3915 233.924 64.1025 244.428 53.3781C254.94 42.6461 269.155 38.6245 277.496 44.0324C278.242 44.5064 278.934 45.0607 279.56 45.6852C283.369 49.3869 284.694 55.1147 283.369 61.8098C282.043 68.505 278.227 75.2458 272.621 80.9659C267.014 86.6861 260.311 90.6392 253.706 92.1016C251.962 92.4993 250.179 92.7036 248.389 92.711ZM244.703 53.6447L244.977 53.9113C234.716 64.3843 231.044 78.2849 236.43 86.191C236.888 86.8856 237.422 87.5269 238.022 88.1028C241.617 91.6218 247.117 92.7795 253.524 91.3552C259.93 89.9309 266.572 86.0235 272.065 80.4328C277.557 74.8421 281.312 68.147 282.607 61.6575C283.902 55.168 282.607 49.7449 279.035 46.226C278.439 45.6549 277.789 45.1446 277.092 44.7026C269.04 39.4928 255.238 43.4611 244.977 53.9418L244.703 53.6447Z" fill="black"/>
<path d="M236.11 86.4043C241.541 84.1193 253.326 77.3861 259.656 71.864L256.609 65.0698L264.881 67.1035C270.267 60.6597 275.119 49.8363 277.275 44.3523C269.17 39.1043 255.23 42.8746 244.687 53.6447C234.145 64.4148 230.717 78.4143 236.11 86.4043Z" fill="black"/>
<path d="M235.974 86.8765L235.799 86.6176C230.216 78.3915 233.925 64.1025 244.43 53.3781C254.934 42.6537 269.156 38.6245 277.497 44.0324L277.764 44.1999L277.65 44.4894C276.659 47.0029 271.403 59.9057 265.187 67.3396L265.035 67.5148L257.288 65.6106L260.122 71.9477L259.908 72.1305C253.548 77.6831 241.627 84.4925 236.294 86.7394L235.974 86.8765ZM268.653 42.3872C261.165 42.3872 252.192 46.5383 244.978 53.9113C234.832 64.2701 231.13 77.9573 236.256 85.9016C241.665 83.5785 252.961 77.0966 259.2 71.7268L255.963 64.4833L264.753 66.6465C270.619 59.5248 275.608 47.5208 276.819 44.4741C274.343 43.0351 271.516 42.3125 268.653 42.3872Z" fill="black"/>
<path d="M270.328 79.5645C280.87 68.802 294.818 65.0241 302.923 70.2797C303.645 70.7409 304.317 71.2771 304.926 71.8792C312.544 79.3512 309.443 94.9046 297.964 106.627C286.484 118.349 271.013 121.769 263.38 114.297C262.765 113.703 262.216 113.044 261.743 112.332C256.349 104.334 259.815 90.3345 270.328 79.5645Z" fill="white"/>
<path d="M274.061 118.616C269.765 118.616 265.941 117.305 263.145 114.571C262.51 113.956 261.943 113.274 261.454 112.537C255.878 104.319 259.588 90.0223 270.092 79.2979C280.597 68.5659 294.819 64.5519 303.16 69.9598C303.905 70.4325 304.597 70.9841 305.224 71.605C312.994 79.2217 309.871 95.0417 298.27 106.893C290.843 114.442 281.709 118.616 274.061 118.616ZM294.308 68.345C286.82 68.345 277.855 72.4962 270.633 79.8615C260.38 90.3346 256.709 104.235 262.087 112.149C262.551 112.839 263.084 113.479 263.679 114.061C271.151 121.373 286.424 117.93 297.721 106.391C309.018 94.8513 312.194 79.4959 304.691 72.1762C304.099 71.6013 303.448 71.0907 302.749 70.6529C300.222 69.0708 297.289 68.2583 294.308 68.3146V68.345Z" fill="black"/>
<path d="M261.773 112.332C267.197 110.047 279.157 103.603 285.494 98.0808L281.686 90.7839L290.979 92.6043C296.364 86.1606 300.76 75.7561 302.923 70.2797C294.818 65.0241 280.87 68.802 270.328 79.5645C259.785 90.3269 256.35 104.334 261.773 112.332Z" fill="black"/>
<path d="M261.629 112.804L261.454 112.545C255.878 104.319 259.588 90.0222 270.092 79.2979C280.597 68.5735 294.819 64.5519 303.16 69.9598L303.419 70.1273L303.305 70.4168C299.313 80.547 295.276 88.0952 291.3 92.8481L291.155 93.0233L282.418 91.3095L285.975 98.1646L285.746 98.3626C279.561 103.755 267.731 110.245 261.919 112.674L261.629 112.804ZM294.308 68.3145C286.82 68.3145 277.855 72.4657 270.633 79.8311C260.494 90.1898 256.785 103.885 261.911 111.821C267.701 109.361 278.936 103.176 285.023 97.9589L280.993 90.266L290.835 92.1854C294.644 87.5316 298.582 80.2119 302.459 70.432C299.99 68.9865 297.169 68.2536 294.308 68.3145Z" fill="black"/>
<path d="M218.363 108.485C218.797 113.043 219.957 117.501 221.799 121.693C224.686 128.243 229.15 133.811 234.794 139.15C239.394 143.425 244.612 146.982 250.273 149.699C251.149 150.118 252.192 150.583 253.381 151.032C261.394 154.079 275.304 156.89 280.804 148.123C284.27 142.578 279.082 136.545 273.948 132.013C272.935 131.122 271.929 130.277 270.985 129.515C270.04 128.753 269.164 128.045 268.441 127.443L268.166 127.23L267.923 127.024C266.132 125.501 264.403 123.94 262.705 122.332C262.598 122.218 262.476 122.104 262.354 121.99C260.831 120.466 259.261 118.943 257.784 117.374L257.212 116.78L257.022 116.574L254.881 114.289C253.952 113.284 253.03 112.263 252.109 111.243L251.766 110.869C250.189 109.117 248.62 107.358 247.035 105.606C246.891 105.454 246.761 105.301 246.609 105.149C245.085 103.451 243.562 101.752 241.962 100.076L240.263 98.294C236.881 94.7599 231.199 88.0495 224.808 91.241C218.767 94.2267 217.853 103.504 218.363 108.485Z" fill="black"/>
<path d="M267.868 154.399C262.853 154.267 257.902 153.249 253.242 151.39C252.191 150.987 251.132 150.537 250.104 150.042C244.403 147.313 239.15 143.733 234.526 139.424C228.28 133.529 224.128 127.938 221.439 121.845C219.581 117.618 218.411 113.12 217.973 108.523C217.494 103.809 218.248 94.0515 224.593 90.8982C230.938 87.7448 236.453 93.7468 239.828 97.3115L240.506 98.0274C241.07 98.5987 241.618 99.1852 242.174 99.7641C243.568 101.287 245.008 102.811 246.867 104.89L247.278 105.332C248.085 106.231 248.885 107.114 249.677 108.005L252.046 110.633L252.45 111.075C253.349 112.065 254.25 113.053 255.154 114.038C255.855 114.799 256.579 115.561 257.287 116.323L257.485 116.544L258.049 117.123C259.496 118.646 260.997 120.169 262.62 121.693C262.741 121.807 262.871 121.929 262.985 122.051C264.821 123.787 266.52 125.318 268.165 126.704L268.295 126.819L268.424 126.933C268.511 126.992 268.595 127.055 268.675 127.123L269.909 128.129L271.159 129.142L271.243 129.203C272.233 129.964 273.231 130.84 274.221 131.716C281.701 138.343 283.956 143.774 281.122 148.306C278.357 152.723 273.421 154.399 267.868 154.399ZM228.204 90.7763C227.067 90.7825 225.947 91.0565 224.936 91.5761C218.971 94.5542 218.271 103.915 218.743 108.447C219.17 112.965 220.317 117.385 222.14 121.54C224.791 127.535 228.889 133.042 235.09 138.868C239.659 143.122 244.847 146.658 250.477 149.357C251.483 149.837 252.519 150.286 253.524 150.674C256.922 151.977 274.198 157.956 280.475 147.917C283.08 143.751 280.871 138.64 273.718 132.303C272.766 131.465 271.799 130.65 270.854 129.881H270.785L270.702 129.774C270.26 129.408 269.833 129.066 269.422 128.738C269.011 128.411 268.561 128.045 268.188 127.733L267.929 127.527L267.792 127.413L267.655 127.291C266.009 125.905 264.303 124.366 262.437 122.599C262.315 122.477 262.201 122.363 262.086 122.264C260.433 120.664 258.925 119.149 257.478 117.625L256.716 116.818C256.008 116.056 255.284 115.295 254.575 114.533C253.666 113.548 252.765 112.558 251.871 111.562L251.468 111.121L249.121 108.516L246.729 105.85L246.31 105.408C244.452 103.336 243.02 101.775 241.664 100.328C241.077 99.7107 240.529 99.1319 239.965 98.553L239.28 97.8294C236.507 94.9046 232.614 90.7763 228.204 90.7763Z" fill="black"/>
<path d="M259.148 125.143C257.335 126.826 254.144 129.248 251.897 127.558C249.276 125.585 252.057 121.647 252.658 120.756C251.478 121.479 247.806 123.726 245.894 121.875C243.982 120.025 246.907 115.904 248.499 114.198C246.701 115.66 242.588 118.357 240.524 116.628C238.459 114.899 241.186 110.648 242.657 109.064C241.423 110.054 235.085 113.718 234.369 109.826C233.714 106.223 238.939 101.699 241.902 100.038C246.473 105.53 251.638 111.281 257.518 117.123C263.102 122.668 268.632 127.603 273.942 131.983C272.761 133.708 271.299 135.222 269.615 136.462C267.81 137.833 265.806 138.8 263.978 138.549C259.727 137.962 263.155 132.364 264.671 130.642C263.094 132.432 258.821 134.329 256.657 132.257C255.423 131.069 256.071 127.618 259.126 125.113" fill="white"/>
<path d="M264.579 139.006C264.368 139.006 264.156 138.99 263.947 138.96C263.47 138.946 263.008 138.794 262.615 138.524C262.222 138.254 261.915 137.876 261.73 137.436C261.22 136.065 261.989 134.093 262.926 132.508C261.844 133.126 260.635 133.49 259.392 133.575C258.854 133.621 258.313 133.555 257.802 133.382C257.29 133.209 256.82 132.932 256.421 132.569C256.158 132.285 255.959 131.947 255.837 131.579C255.715 131.212 255.672 130.822 255.713 130.437C255.784 129.429 256.086 128.452 256.596 127.58C254.623 128.723 252.947 128.83 251.668 127.87C250.388 126.91 249.596 125.234 251.523 121.868C249.809 122.759 247.242 123.703 245.65 122.157C244.058 120.611 245.277 117.922 246.556 116.064C244.637 117.222 241.986 118.349 240.302 116.932C240.031 116.703 239.81 116.419 239.655 116.099C239.5 115.778 239.415 115.429 239.404 115.074C239.32 113.672 240.127 111.951 241.049 110.549C239.358 111.463 237.004 112.377 235.465 111.806C235.077 111.656 234.737 111.403 234.482 111.075C234.227 110.746 234.066 110.353 234.018 109.94C233.256 105.972 239.015 101.28 241.742 99.7488L242.016 99.5965L242.222 99.8402C247.112 105.743 252.353 111.479 257.807 116.894C263.01 122.058 268.525 127.047 274.208 131.739L274.467 131.952L274.284 132.242C273.081 134.004 271.587 135.55 269.866 136.812C268.495 137.833 266.522 139.006 264.579 139.006ZM264.975 130.924C263.787 132.28 261.822 135.494 262.439 137.162C262.582 137.471 262.809 137.733 263.095 137.918C263.381 138.103 263.713 138.203 264.054 138.206C265.928 138.465 268 137.254 269.386 136.187C270.942 135.043 272.307 133.66 273.431 132.09C267.824 127.451 262.386 122.515 257.251 117.42C251.858 112.088 246.663 106.391 241.818 100.556C238.908 102.285 234.148 106.52 234.749 109.788C234.774 110.07 234.876 110.341 235.046 110.568C235.215 110.795 235.445 110.971 235.709 111.075C237.522 111.753 241.293 109.673 242.412 108.79L242.931 109.346C241.796 110.572 240.028 113.208 240.142 115.036C240.145 115.288 240.203 115.537 240.313 115.765C240.422 115.992 240.579 116.193 240.775 116.353C242.527 117.823 246.305 115.523 248.255 113.931L248.781 114.487C247.013 116.369 244.477 119.994 246.16 121.624C247.844 123.254 251.317 121.152 252.46 120.459L253.983 119.499L252.932 121.022C251.477 123.094 250.152 125.859 252.064 127.299C253.785 128.593 256.238 127.154 258.158 125.486C258.364 125.28 258.584 125.09 258.821 124.892L259.323 125.471C259.102 125.669 258.889 125.867 258.676 126.049C257.39 127.202 256.576 128.789 256.391 130.505C256.362 130.778 256.389 131.054 256.47 131.316C256.551 131.577 256.685 131.82 256.863 132.029C257.19 132.316 257.574 132.533 257.99 132.664C258.406 132.795 258.844 132.838 259.278 132.79C261.191 132.628 262.981 131.781 264.32 130.406L264.892 130.909L264.975 130.924Z" fill="black"/>
<path d="M221.797 121.693C224.684 128.243 229.148 133.811 234.792 139.15C239.392 143.425 244.61 146.982 250.271 149.699C251.147 150.118 252.191 150.583 253.379 151.032C254.438 144.992 254.979 131.838 238.251 135.921C238.251 135.921 244.428 117.488 221.797 121.693Z" fill="#EC4767"/>
<path d="M253.678 151.55L253.243 151.39C252.192 150.987 251.133 150.537 250.105 150.042C244.404 147.313 239.152 143.733 234.527 139.424C228.281 133.529 224.129 127.938 221.44 121.845L221.25 121.411L221.722 121.319C229.203 119.918 234.405 120.824 237.178 124.016C240.454 127.778 239.303 133.483 238.793 135.403C244.354 134.154 248.483 134.755 251.08 137.185C254.889 140.757 254.386 147.437 253.746 151.101L253.678 151.55ZM222.339 121.982C224.99 127.809 229.043 133.186 235.053 138.868C239.622 143.122 244.81 146.658 250.44 149.357C251.301 149.768 252.192 150.156 253.083 150.507C253.655 146.919 253.975 140.925 250.562 137.741C248.071 135.403 243.958 134.915 238.374 136.286L237.704 136.454L237.925 135.799C237.925 135.73 240.256 128.662 236.645 124.511C234.086 121.609 229.286 120.763 222.339 121.982Z" fill="black"/>
<path d="M75.2146 33.5213C74.1979 38.5724 74.154 43.771 75.0851 48.8385C76.1558 54.7602 78.5129 60.3749 81.9903 65.2865C85.4677 70.198 89.9805 74.2867 95.2105 77.2642C102.946 81.666 111.9 83.4407 120.729 82.3217C127.325 81.4896 133.621 79.0692 139.075 75.2682C144.53 71.4673 148.98 66.3994 152.045 60.4998C156.695 51.5671 157.907 41.2387 155.45 31.4724C154.105 26.1327 151.701 21.1174 148.381 16.7238C145.062 12.3303 140.893 8.64805 136.124 5.89536C128.264 1.37213 119.132 -0.437345 110.141 0.746433C101.629 1.87749 93.684 5.64382 87.4205 11.5174C81.1571 17.3909 76.889 25.0771 75.2146 33.4984V33.5213Z" fill="white"/>
<path d="M115.586 83.0377C112.866 83.0483 110.151 82.7932 107.481 82.276C102.132 81.2178 97.0449 79.1158 92.5093 76.0904C87.9736 73.0649 84.0787 69.1753 81.0473 64.6438C78.0159 60.1124 75.9074 55.0279 74.8423 49.6812C73.7772 44.3344 73.7765 38.8302 74.8402 33.4832C76.1271 27.013 78.9371 20.9424 83.0376 15.7743C87.138 10.6063 92.4108 6.48933 98.4193 3.76456C104.428 1.03978 110.999 -0.21444 117.589 0.105775C124.179 0.42599 130.597 2.31142 136.313 5.60592C141.122 8.3883 145.324 12.105 148.673 16.537C152.022 20.969 154.45 26.0265 155.814 31.4114C157.349 37.5326 157.47 43.9228 156.167 50.0975C154.864 56.2722 152.172 62.0691 148.295 67.0485C144.418 72.0279 139.457 76.059 133.79 78.836C128.123 81.6129 121.897 83.0629 115.586 83.0758V83.0377ZM115.525 0.776912C106.097 0.784525 96.9626 4.06139 89.6798 10.049C82.397 16.0366 77.4163 24.3643 75.5867 33.6127C74.577 38.6157 74.533 43.7657 75.4572 48.7852C76.6744 55.5209 79.5689 61.8414 83.8735 67.1635C88.1781 72.4856 93.7541 76.6378 100.087 79.2368C106.42 81.8358 113.305 82.7979 120.108 82.0343C126.91 81.2707 133.411 78.806 139.01 74.8677C144.609 70.9294 149.125 65.6444 152.142 59.5005C155.16 53.3565 156.581 46.5515 156.274 39.7137C155.967 32.8758 153.943 26.2253 150.388 20.376C146.833 14.5268 141.861 9.66716 135.932 6.24573C132.072 4.00661 127.865 2.42609 123.485 1.56905C120.865 1.04032 118.199 0.769906 115.525 0.761675V0.776912Z" fill="black"/>
<path d="M104.078 54.4978L121.057 57.9482L132.544 44.9769L127.045 28.5399L110.065 25.0819L98.5781 38.0609L104.078 54.4978Z" fill="black"/>
<path d="M121.203 58.3671L103.79 54.8253L98.1758 37.9695L109.952 24.663L127.366 28.2124L133.003 45.0606L121.203 58.3671ZM104.369 54.1626L120.922 57.5369L132.112 44.8854L126.779 28.8903L110.227 25.5237L99.0366 38.1675L104.369 54.1626Z" fill="black"/>
<path d="M75.2146 33.5213C74.1979 38.5724 74.154 43.771 75.0851 48.8385L76.4182 49.1051L87.913 36.1186L82.4131 19.6893L80.8896 19.3846C78.1264 23.6984 76.2011 28.4944 75.2146 33.5213Z" fill="black"/>
<path d="M76.5559 49.5164L74.7582 49.1584L74.7049 48.9071C73.7679 43.7912 73.8145 38.5436 74.842 33.4451C75.8378 28.372 77.7812 23.5321 80.5704 19.1789L80.7075 18.9581L82.7032 19.3541L82.7794 19.5674L88.3402 36.21L76.5559 49.5164ZM75.4133 48.5186L76.2817 48.6862L87.4794 36.0348L82.1472 20.0396L81.096 19.834C78.4293 24.0499 76.5695 28.7248 75.6114 33.6203C74.6125 38.5301 74.5453 43.584 75.4133 48.5186Z" fill="black"/>
<path d="M110.14 0.746433L113.019 9.36097L130.006 12.8266L136.1 5.89536C128.24 1.37213 119.109 -0.437345 110.117 0.746433H110.14Z" fill="black"/>
<path d="M130.169 13.2455L112.755 9.68849L109.602 0.434159L110.059 0.365599C119.135 -0.827112 128.352 1.00106 136.286 5.56783L136.689 5.80395L130.169 13.2455ZM113.334 9.03345L129.864 12.3772L135.532 5.96391C127.971 1.72619 119.258 0.000479876 110.653 1.03588L113.334 9.03345Z" fill="black"/>
<path d="M95.2109 77.2642C102.946 81.6661 111.9 83.4407 120.73 82.3217L117.98 74.1642L100.993 70.6986L95.2109 77.2642Z" fill="black"/>
<path d="M115.588 83.0377C112.868 83.0483 110.154 82.7932 107.483 82.276C103.105 81.415 98.8963 79.8484 95.0209 77.6374L94.6172 77.4013L100.879 70.3177L118.292 73.8672L121.233 82.6797L120.776 82.7407C119.055 82.95 117.322 83.0492 115.588 83.0377ZM95.7826 77.1652C103.218 81.2816 111.753 82.9725 120.197 82.0018L117.691 74.4917L101.138 71.1175L95.7826 77.1652Z" fill="black"/>
<path d="M144.641 43.6744L150.14 60.1037L152.03 60.4998C156.68 51.5671 157.892 41.2387 155.435 31.4724L144.641 43.6744Z" fill="black"/>
<path d="M152.26 60.9263L149.875 60.4312L144.238 43.583L155.665 30.6802L155.84 31.3734C158.323 41.2308 157.103 51.6567 152.412 60.675L152.26 60.9263ZM150.454 59.7762L151.848 60.0656C156.239 51.4941 157.448 41.6434 155.261 32.2645L145.099 43.7582L150.454 59.7762Z" fill="black"/>
<path d="M245.509 -1.03458e-05L240.711 2.03232L251.147 26.6631L255.944 24.6308L245.509 -1.03458e-05Z" fill="#FF7A00"/>
<path d="M189.459 45.7328L186.98 50.3068L208.627 62.0343L211.106 57.4603L189.459 45.7328Z" fill="#FF7A00"/>
<path d="M213.958 16.5793L209.812 19.7224L227.163 42.6039L231.309 39.4609L213.958 16.5793Z" fill="#FF7A00"/>
</g>
<defs>
<clipPath id="clip0_117_6551">
<rect width="390" height="390" fill="white"/>
</clipPath>
</defs>
</svg>
